<svg width="32" height="32" viewBox="0 0 32 32" fill="none" xmlns="http://www.w3.org/2000/svg">
<path d="M16 5.325C18.03 5.325 19.675 6.97 19.675 9C19.675 11.03 18.03 12.675 16 12.675C13.97 12.675 12.325 11.03 12.325 9C12.325 6.97 13.97 5.325 16 5.325ZM16 21.075C21.1975 21.075 26.675 23.63 26.675 24.75V26.675H5.325V24.75C5.325 23.63 10.8025 21.075 16 21.075ZM16 2C12.1325 2 9 5.1325 9 9C9 12.8675 12.1325 16 16 16C19.8675 16 23 12.8675 23 9C23 5.1325 19.8675 2 16 2ZM16 17.75C11.3275 17.75 2 20.095 2 24.75V30H30V24.75C30 20.095 20.6725 17.75 16 17.75Z" fill="#F5F1E6"/>
</svg>
